<svg version="1.1" id="Layer_1" xmlns="http://www.w3.org/2000/svg" xmlns:xlink="http://www.w3.org/1999/xlink" x="0px" y="0px"
	 width="100%" viewBox="0 0 560 445" enable-background="new 0 0 560 445" xml:space="preserve">
<path fill="#1C1C55" opacity="1.000000" stroke="none" 
	d="
M391.000000,446.000000 
	C260.666687,446.000000 130.833389,446.000000 1.000070,446.000000 
	C1.000046,297.666748 1.000046,149.333466 1.000023,1.000149 
	C187.666565,1.000100 374.333130,1.000100 560.999756,1.000050 
	C560.999878,149.333191 560.999878,297.666382 560.999939,445.999786 
	C504.500000,446.000000 448.000000,446.000000 391.000000,446.000000 
M273.003021,131.005173 
	C273.003021,131.005173 273.010437,131.097168 273.627350,131.062347 
	C273.779907,130.705612 273.932465,130.348892 273.886414,130.182571 
	C273.886414,130.182571 274.059265,130.396637 274.682922,130.086884 
	C280.931580,124.115639 287.180206,118.144394 293.745544,112.081520 
	C293.745544,112.081520 293.954590,111.826553 294.589874,111.662628 
	C296.180511,110.567490 297.771179,109.472359 299.230682,108.331696 
	C299.230682,108.331696 299.185394,108.462936 299.797974,108.336090 
	C300.264923,107.943581 300.731873,107.551071 301.115692,107.146675 
	C301.115692,107.146675 301.103912,107.229836 301.841644,107.113785 
	C308.128571,104.512077 314.415497,101.910378 321.498749,99.285301 
	C324.982635,98.750412 328.466553,98.215523 332.867706,97.575974 
	C336.922852,97.407547 340.978027,97.239128 345.755157,97.277260 
	C347.507629,97.416954 349.260101,97.556641 351.640259,97.992744 
	C352.782745,98.119232 353.925201,98.245720 355.670593,98.661926 
	C356.112335,98.700562 356.554077,98.739197 357.702484,99.048454 
	C361.449463,100.119255 365.196442,101.190056 368.917664,102.199295 
	C368.917664,102.199295 368.861542,102.235344 369.320770,102.733742 
	C378.151550,108.187553 387.054688,113.528740 395.785645,119.137924 
	C400.919830,122.436378 406.311615,122.535172 410.368286,118.850517 
	C414.353119,115.231117 415.031433,110.570084 412.258575,105.173851 
	C412.258575,105.173851 412.026398,105.012268 411.921814,104.449295 
	C411.647461,104.197716 411.373077,103.946136 410.811859,103.146172 
	C409.549561,102.093872 408.287262,101.041565 406.729797,99.398369 
	C404.205231,97.538307 401.680634,95.678246 399.105377,93.894165 
	C399.105377,93.894165 399.187103,93.853378 398.853729,93.329285 
	C398.302704,93.053215 397.751648,92.777153 397.255280,92.618645 
	C397.255280,92.618645 397.372711,92.563766 397.042267,92.082237 
	C396.356598,91.748276 395.670929,91.414307 394.358948,90.750298 
	C390.919891,88.806656 387.614746,86.561348 384.020935,84.966423 
	C351.170807,70.387756 319.110748,71.893570 287.302063,90.096458 
	C286.993683,90.385811 286.685272,90.675163 285.874146,91.007568 
	C285.204437,91.501114 284.534729,91.994652 283.202393,92.720047 
	C282.275330,93.414169 281.348267,94.108292 279.849243,95.051964 
	C278.233734,96.383682 276.618256,97.715401 274.389435,99.309250 
	C266.760590,107.838768 259.131775,116.368286 251.029709,125.306923 
	C244.506973,135.059280 239.443573,145.480667 236.164474,157.487701 
	C234.719666,164.229385 232.617996,170.914825 232.034348,177.730255 
	C231.552719,183.354538 229.644882,187.411636 224.232513,190.532318 
	C221.426910,190.750671 218.621796,191.150681 215.815628,191.158127 
	C196.543411,191.209259 177.270950,191.173767 157.998581,191.181641 
	C156.340256,191.182327 154.606934,191.022598 153.049774,191.451050 
	C151.994324,191.741470 151.186401,192.931442 150.267776,193.719101 
	C151.241379,194.463043 152.125946,195.412735 153.217133,195.884995 
	C154.070221,196.254196 155.179688,196.067093 156.175171,196.065781 
	C177.275345,196.038040 198.375763,196.041000 219.475327,195.909271 
	C221.720749,195.895279 223.961197,195.083099 226.835464,194.462616 
	C227.215988,194.248703 227.596527,194.034790 228.604050,193.683441 
	C229.850021,192.563690 231.096008,191.443939 232.037643,190.016342 
	C232.037643,190.016342 232.333313,190.331619 232.833008,190.032791 
	C233.244461,188.990463 233.655914,187.948151 234.437958,186.294571 
	C236.677719,176.542404 238.917480,166.790237 241.240128,156.805481 
	C241.240128,156.805481 241.076080,156.621124 241.527466,156.217804 
	C241.618576,155.831604 241.709671,155.445389 242.040390,154.613907 
	C242.050522,154.283066 242.060654,153.952225 242.556229,153.206497 
	C242.668106,152.802933 242.779984,152.399368 243.133499,151.309372 
	C247.140274,143.346176 251.147064,135.382965 255.666290,126.962791 
	C257.696442,124.199043 259.471100,121.194077 261.807495,118.719467 
	C267.476929,112.714615 273.407684,106.956490 279.839203,100.871086 
	C281.561554,99.578568 283.283905,98.286049 285.539642,96.872719 
	C285.769958,96.602036 286.000275,96.331360 286.044830,96.050331 
	C286.044830,96.050331 286.034576,96.236115 286.629150,96.116623 
	C287.094055,95.750717 287.558960,95.384819 288.001465,94.996437 
	C288.001465,94.996437 288.012299,95.025002 288.642151,94.896759 
	C288.959259,94.617134 289.276337,94.337509 290.038849,93.594360 
	C297.896637,90.368958 305.538910,86.398506 313.650879,84.051674 
	C343.191772,75.505409 370.705902,80.933311 396.720886,97.908371 
	C398.158447,98.899689 399.596039,99.891014 401.397491,101.364845 
	C402.221527,101.929779 403.045563,102.494713 404.147308,103.617027 
	C405.108154,104.385895 406.069000,105.154762 407.345917,106.485275 
	C407.762787,106.974113 408.179657,107.462959 408.665131,108.668007 
	C407.690094,111.088684 407.330383,114.683617 405.570221,115.605988 
	C403.741943,116.564041 400.204559,115.562973 398.030121,114.331680 
	C388.828125,109.120949 379.855286,103.505577 370.252930,97.641808 
	C364.483368,96.215538 358.713837,94.789261 352.311798,93.197159 
	C351.877075,93.192215 351.442383,93.187271 350.280762,92.939941 
	C348.490448,92.840088 346.700134,92.740242 344.046234,92.440887 
	C340.365479,92.599480 336.684723,92.758072 332.621307,92.756165 
	C332.093872,92.871849 331.566437,92.987526 330.239441,93.073936 
	C329.185516,93.216492 328.131561,93.359047 326.398804,93.364105 
	C325.283966,93.611076 324.169159,93.858047 322.302704,94.134239 
	C313.871399,97.715775 305.440125,101.297310 296.277405,104.865990 
	C286.254547,110.412277 278.052795,118.032394 270.999390,127.006546 
	C270.999390,127.006546 271.024414,127.052780 270.473236,127.423164 
	C268.789612,129.933517 267.105957,132.443863 264.936371,135.380981 
	C262.110016,140.887085 259.283691,146.393188 256.049896,152.415817 
	C250.199127,166.367828 247.699493,180.920364 248.068893,196.830658 
	C248.139755,198.205978 248.210602,199.581284 248.202133,201.839447 
	C248.250671,204.194443 248.299210,206.549454 248.161682,209.837555 
	C248.207642,214.660156 247.932816,219.512985 248.383545,224.297455 
	C248.906601,229.849594 253.343124,233.515289 258.917206,233.727646 
	C264.382080,233.935852 269.045807,230.443115 269.917664,224.886490 
	C270.425201,221.651886 270.051697,218.279053 270.193756,214.041519 
	C270.187408,205.386841 270.181030,196.732162 270.454651,187.376663 
	C270.878815,183.300690 270.836639,179.105927 271.837585,175.176895 
	C273.299225,169.439575 275.510071,163.893097 277.817017,157.737778 
	C282.633789,150.403732 287.450562,143.069672 292.828217,135.393005 
	C294.146851,134.010010 295.465485,132.626999 297.414368,131.036835 
	C297.706696,130.722214 297.999054,130.407593 298.847107,129.849594 
	C299.922028,128.934464 300.996948,128.019348 302.672699,126.925468 
	C302.964630,126.631050 303.256561,126.336639 304.150665,125.806831 
	C310.507904,122.856827 316.610474,119.006599 323.269318,117.122581 
	C344.784119,111.035309 364.234833,116.143295 382.081299,130.225235 
	C384.381683,133.231094 384.974670,136.373352 382.007446,139.175064 
	C378.932281,142.078705 375.871155,140.597534 372.998199,138.516937 
	C371.784454,137.637909 370.589905,136.730972 369.354950,135.882812 
	C351.328552,123.502502 326.813538,124.017021 309.396759,137.306198 
	C308.301788,138.277893 307.206787,139.249588 305.545593,140.506607 
	C304.079254,142.012390 302.612915,143.518173 301.050262,145.024139 
	C301.050262,145.024139 301.050598,145.120422 300.517578,145.441040 
	C299.898315,146.259949 299.279053,147.078857 298.131409,148.257843 
	C294.711090,154.478699 291.290771,160.699554 287.931274,166.937927 
	C287.931274,166.937927 287.918091,166.876022 287.330536,167.266541 
	C286.370056,170.499939 285.409576,173.733337 284.095978,177.750168 
	C283.673187,184.515320 283.250397,191.280472 282.631897,198.959122 
	C282.705597,207.628311 282.779297,216.297516 282.643677,225.756866 
	C282.614349,232.085739 282.395294,238.420990 282.607544,244.741745 
	C282.833344,251.466232 287.373291,255.923660 293.571899,256.016846 
	C299.435028,256.104980 304.270233,251.793365 304.587067,245.351089 
	C304.921631,238.548996 304.546356,231.712021 304.583069,223.972519 
	C304.598358,212.319153 304.613647,200.665771 304.849396,188.236557 
	C307.149902,180.814377 309.450409,173.392212 312.268463,165.513763 
	C323.379791,148.706223 342.951233,144.216171 358.111206,155.702499 
	C358.429413,156.802872 358.747589,157.903259 358.935394,159.632355 
	C358.863556,160.270386 358.791718,160.908401 358.196381,162.034393 
	C354.790802,166.615677 351.012604,164.473312 347.089691,162.815811 
	C339.033112,159.411728 330.174957,162.326065 324.771301,169.955185 
	C319.711151,177.099335 320.072479,183.734650 325.970215,190.097855 
	C325.970215,190.097855 325.886139,190.000488 326.066467,190.634598 
	C326.691071,191.238541 327.315643,191.842499 328.336395,192.972260 
	C331.599670,193.968338 334.851746,195.781647 338.128052,195.826553 
	C357.903046,196.097488 377.684082,196.022552 397.461517,195.865341 
	C399.248596,195.851151 401.024536,194.433685 402.805634,193.667877 
	C401.050873,192.847778 399.367401,191.698334 397.521606,191.298767 
	C395.615936,190.886215 393.552399,191.199799 391.557922,191.201050 
	C374.937317,191.211456 358.315704,191.122223 341.696655,191.288589 
	C335.807617,191.347549 330.881470,189.917206 327.035522,184.138351 
	C324.762848,179.503891 325.921906,175.507355 329.361206,171.984055 
	C335.074463,166.131332 339.761261,165.230057 347.365784,168.457123 
	C354.276428,171.389771 358.529938,170.218826 362.258636,164.166946 
	C362.258636,164.166946 362.078949,164.199097 362.566437,163.991562 
	C362.688934,163.669769 362.811401,163.347961 363.201813,162.584991 
	C363.248108,162.247208 363.294403,161.909424 363.721924,160.855392 
	C362.827301,157.881302 361.932648,154.907211 360.713287,151.350143 
	C345.830902,138.742020 321.470490,143.188492 310.428070,160.798294 
	C310.203735,161.179520 309.979401,161.560730 309.374359,162.217514 
	C309.169006,162.632782 308.963654,163.048065 308.235138,163.927551 
	C301.731659,173.990601 299.266357,185.038147 300.035797,197.849594 
	C300.086151,206.879517 300.136505,215.909424 300.008820,225.869308 
	C299.930573,231.842239 299.992310,237.821503 299.722992,243.785812 
	C299.554291,247.521790 298.186920,250.989426 293.730042,250.920441 
	C289.084686,250.848495 287.782715,247.473938 287.730560,243.354050 
	C287.648743,236.891006 287.490601,230.428940 287.507538,223.041183 
	C287.500183,214.675308 287.492798,206.309448 287.629791,197.028168 
	C289.080200,187.016724 290.530579,177.005295 292.213013,166.362564 
	C296.814728,159.597824 301.416412,152.833069 306.637909,145.785995 
	C308.602386,144.248611 310.529755,142.660858 312.537201,141.181778 
	C329.050537,129.014755 350.215820,128.707977 367.111603,140.368530 
	C369.163910,141.784927 371.093781,143.430969 373.283325,144.585907 
	C378.595581,147.388016 384.883392,145.202820 387.727478,139.775116 
	C390.706360,134.090225 388.932098,128.631882 382.798004,125.124092 
	C380.191467,123.114395 377.755219,120.820663 374.951569,119.139732 
	C351.508911,105.084702 317.471802,104.462082 290.319183,131.147171 
	C284.718079,139.370621 279.116974,147.594086 273.099121,156.342758 
	C268.639252,166.416031 265.789948,176.865158 265.459991,188.739624 
	C265.507172,196.826477 265.554352,204.913315 265.396240,213.899200 
	C265.326630,216.556381 265.269470,219.213974 265.184418,221.870667 
	C265.063690,225.641006 263.500885,228.592300 259.480621,228.740326 
	C255.140411,228.900116 253.429214,225.840240 253.232651,221.895142 
	C253.017853,217.584976 252.957520,213.267120 252.936539,208.026749 
	C252.225784,189.193848 254.035339,170.728195 261.365814,152.453674 
	C263.581024,147.929916 265.796265,143.406158 268.573608,138.626816 
	C268.808624,138.070877 269.043640,137.514938 269.030640,137.088638 
	C269.030640,137.088638 269.160339,137.336655 269.667114,137.001480 
	C270.073822,136.323151 270.480499,135.644806 271.348297,134.620712 
	C271.575592,133.943359 271.802917,133.266006 272.723602,132.346832 
	C272.847412,131.897171 272.971222,131.447495 273.003021,131.005173 
M384.481873,296.772491 
	C382.769836,290.515808 381.244049,284.197327 379.203217,278.049805 
	C378.743866,276.666107 376.540955,275.171387 375.039276,275.056763 
	C373.969482,274.975128 372.219116,276.919189 371.671936,278.312500 
	C370.524811,281.233246 370.003510,284.395935 369.165314,287.442810 
	C368.104858,291.297607 366.984772,295.135986 365.890411,298.981476 
	C365.380310,298.951050 364.870239,298.920654 364.360168,298.890259 
	C363.808594,297.426361 363.130585,295.996246 362.729095,294.492310 
	C361.485229,289.833252 360.375458,285.138611 359.159882,280.471771 
	C357.528564,274.208832 355.975433,273.458221 349.213837,276.009460 
	C352.188904,286.473663 355.231750,296.976349 358.137787,307.516724 
	C359.035492,310.772827 359.905212,313.131439 364.269623,313.103363 
	C368.568695,313.075623 369.520203,310.813873 370.434937,307.539062 
	C371.689514,303.047485 373.262634,298.644867 374.699249,294.204163 
	C375.287994,294.230591 375.876740,294.257019 376.465485,294.283478 
	C378.017670,299.260406 379.706909,304.200134 381.070404,309.228241 
	C381.882141,312.221619 383.587494,313.114563 386.513458,313.029144 
	C389.427856,312.944061 391.490753,312.510254 392.388123,309.114258 
	C394.681885,300.433716 397.368866,291.857697 399.836792,283.222198 
	C400.549896,280.726868 401.053589,278.171692 401.649506,275.660034 
	C394.381775,273.832397 393.503754,274.301636 391.965240,280.417023 
	C390.626343,285.739197 389.376740,291.086334 387.896088,296.368713 
	C387.524902,297.693024 387.191864,300.976685 384.481873,296.772491 
M129.908737,301.466309 
	C129.948502,304.296692 129.634766,307.199463 130.192322,309.923859 
	C130.434265,311.106079 132.465530,312.686279 133.691910,312.693176 
	C134.980286,312.700439 137.225403,311.187256 137.395477,310.083252 
	C137.922546,306.661804 137.676056,303.119171 137.702820,299.623322 
	C137.724518,296.789764 137.707230,293.955933 137.707230,291.122253 
	C138.283691,290.994995 138.860153,290.867767 139.436615,290.740509 
	C140.486893,292.121887 141.617188,293.450287 142.573029,294.894165 
	C145.972717,300.029572 149.017532,305.439667 152.837921,310.234955 
	C154.153885,311.886688 157.303726,312.300140 159.712616,312.709106 
	C160.352615,312.817749 162.055008,310.828674 162.076294,309.778534 
	C162.292389,299.127136 162.364349,288.468506 162.133667,277.819305 
	C162.111404,276.792206 159.683105,274.917145 158.545258,275.040222 
	C157.096878,275.196899 154.794418,276.878326 154.662552,278.097382 
	C154.181793,282.541473 154.508743,287.068054 154.408905,291.560822 
	C154.371078,293.263580 154.001358,294.958954 153.782913,296.657715 
	C151.446472,295.426025 150.262527,293.942047 149.219528,292.364838 
	C145.914673,287.367218 142.975311,282.080780 139.219025,277.454559 
	C137.916626,275.850494 134.624603,275.334747 132.271011,275.399536 
	C131.455719,275.421997 130.146729,278.678375 130.068115,280.500977 
	C129.781311,287.149994 129.918869,293.817352 129.908737,301.466309 
M184.785004,309.045990 
	C184.785004,303.066467 184.785004,297.086945 184.785004,291.107422 
	C185.408737,291.005371 186.032455,290.903320 186.656189,290.801270 
	C188.072708,292.746246 189.562836,294.642426 190.890884,296.646057 
	C193.923187,301.220856 196.512466,306.157349 200.037216,310.304810 
	C201.481461,312.004211 204.848053,312.348236 207.408081,312.590302 
	C207.931000,312.639709 209.321884,309.484711 209.351318,307.790131 
	C209.518860,298.145172 209.376770,288.495209 209.382462,278.846924 
	C209.383926,276.349945 208.772034,274.750214 205.760269,274.744843 
	C202.734650,274.739441 201.535934,276.051147 201.560623,278.931366 
	C201.597672,283.256042 201.624176,287.583038 201.514008,291.905487 
	C201.472763,293.523743 201.036041,295.131927 200.568130,298.074921 
	C198.728668,295.685760 197.756500,294.590149 196.970963,293.373962 
	C193.541748,288.064789 190.501373,282.454651 186.589859,277.533997 
	C185.227249,275.819824 181.781418,275.369507 179.242371,275.243866 
	C178.563492,275.210297 177.094376,278.488098 177.056778,280.268219 
	C176.856567,289.745697 176.892319,299.232971 177.131927,308.709595 
	C177.167007,310.097168 178.461136,312.230804 179.648270,312.640167 
	C181.749557,313.364838 184.492996,313.526398 184.785004,309.045990 
M113.387695,285.251526 
	C112.314598,283.778992 111.391312,282.163086 110.142952,280.858246 
	C104.140083,274.583679 96.855865,273.714600 89.002220,276.389648 
	C82.088898,278.744385 77.325218,285.391327 77.166679,292.793549 
	C76.991615,300.967133 80.134468,307.340454 87.773354,311.062164 
	C94.623016,314.399353 103.072327,313.292908 108.807770,308.252258 
	C115.220848,302.616058 116.839577,295.234558 113.387695,285.251526 
M421.498779,278.008881 
	C416.940918,289.289459 412.383026,300.570038 407.700928,312.158051 
	C412.730377,313.441437 416.114807,313.706787 417.353088,308.683624 
	C418.047211,305.867828 419.907867,304.632660 422.870544,304.825195 
	C425.351471,304.986450 427.859619,304.988739 430.340302,304.826324 
	C433.303253,304.632385 435.176270,305.832092 435.826202,308.688629 
	C437.060608,314.114288 440.458008,313.617767 444.411987,312.240509 
	C444.411987,311.442657 444.555695,310.901062 444.391022,310.480072 
	C440.095734,299.499817 435.894775,288.479736 431.381042,277.589417 
	C429.708984,273.555145 425.503265,273.608337 421.498779,278.008881 
M470.740723,279.689575 
	C469.239380,274.297791 465.466187,274.126434 460.699554,275.332703 
	C460.883545,276.453949 460.862823,277.465820 461.218475,278.321228 
	C465.492004,288.599548 469.693604,298.912170 474.260345,309.059937 
	C475.030090,310.770355 477.493958,312.838593 479.074738,312.758636 
	C480.761444,312.673279 483.006714,310.550598 483.831482,308.771759 
	C487.393799,301.088959 490.537354,293.211426 493.807190,285.393829 
	C495.124573,282.244324 496.374939,279.066772 497.661987,275.886688 
	C491.080383,273.667999 489.508789,274.289490 487.267242,279.868256 
	C485.719299,283.720734 484.355682,287.647003 482.827667,291.507843 
	C481.892242,293.871429 480.801727,296.173645 479.780853,298.503418 
	C479.245789,298.533386 478.710754,298.563324 478.175690,298.593262 
	C475.780701,292.530365 473.385742,286.467468 470.740723,279.689575 
M57.256264,275.890778 
	C45.847366,273.431183 35.520981,277.355286 31.389887,285.720184 
	C27.654444,293.283936 29.123056,301.216339 35.349651,307.108246 
	C41.528107,312.954590 52.591835,314.983093 59.015377,311.159576 
	C60.036297,310.551910 61.000748,308.275665 60.628017,307.282501 
	C60.115559,305.917023 58.425755,304.377533 57.017582,304.117065 
	C55.179844,303.777130 53.132061,304.836243 51.160709,304.907501 
	C44.240730,305.157410 38.473709,300.459595 38.139965,294.477264 
	C37.794098,288.277496 42.777107,283.401520 50.020908,283.042542 
	C51.812595,282.953766 53.732788,283.835846 55.408485,283.455231 
	C57.336193,283.017426 59.682407,282.113953 60.732216,280.626190 
	C62.600208,277.978943 60.111885,276.940155 57.256264,275.890778 
M263.486633,303.954926 
	C270.175079,312.239227 280.376892,315.363464 289.195770,311.471619 
	C290.471954,310.908417 292.044891,308.191589 291.642944,307.296204 
	C290.996460,305.856018 288.920349,304.486969 287.262054,304.212402 
	C285.065338,303.848694 282.670105,304.894043 280.394012,304.760010 
	C273.739197,304.368103 268.878479,299.594788 268.964081,293.877930 
	C269.055725,287.755859 273.969238,283.158020 280.887543,282.988983 
	C283.183685,282.932831 285.585144,283.948822 287.766846,283.545776 
	C289.309113,283.260803 291.004791,281.638641 291.758606,280.166260 
	C292.136383,279.428345 290.890991,277.081970 289.818939,276.505157 
	C282.799469,272.728149 271.432037,275.157745 265.435913,281.451294 
	C259.322174,287.868286 258.543427,295.087524 263.486633,303.954926 
M513.082886,278.981262 
	C513.067078,288.805237 513.037292,298.629181 513.046143,308.453156 
	C513.048157,310.652985 512.977722,313.008209 516.199036,313.011566 
	C521.359924,313.016937 526.532349,313.183197 531.672058,312.850861 
	C532.700073,312.784424 534.323425,310.810455 534.355713,309.678497 
	C534.386108,308.611694 532.869690,306.934143 531.692139,306.536041 
	C530.042297,305.978302 528.068542,306.242981 526.246460,306.359833 
	C522.939148,306.571930 520.912170,305.885040 520.924805,301.818390 
	C520.937256,297.826782 522.871399,296.979126 526.214478,297.168488 
	C527.872009,297.262390 529.661072,297.487000 531.167114,296.983643 
	C532.266357,296.616302 533.788025,295.083618 533.706848,294.200470 
	C533.593506,292.967529 532.386047,291.275757 531.239563,290.831696 
	C529.624146,290.206085 527.627136,290.394043 525.808960,290.501282 
	C522.480652,290.697540 521.020325,289.475616 520.944519,285.936523 
	C520.865112,282.228333 522.630615,281.281677 525.808411,281.408600 
	C527.470398,281.474976 529.311279,281.845276 530.754822,281.275787 
	C532.242920,280.688721 533.346497,279.127014 534.618347,277.991760 
	C533.441589,276.916595 532.326111,275.005981 531.077148,274.914246 
	C526.275696,274.561646 521.414062,274.572601 516.615234,274.954803 
	C515.376831,275.053406 514.285645,277.000549 513.082886,278.981262 
M223.989471,301.463196 
	C224.015015,303.790192 224.148941,306.122284 224.040588,308.443024 
	C223.880035,311.882507 225.418472,313.205658 228.814697,313.070160 
	C233.295853,312.891327 237.809540,313.233948 242.261932,312.830383 
	C243.401352,312.727142 244.947632,310.768188 245.191559,309.454681 
	C245.343445,308.636780 243.565491,306.894897 242.360931,306.527557 
	C240.689850,306.017944 238.737106,306.310333 236.917160,306.436157 
	C233.265854,306.688629 231.954788,305.067932 231.936401,301.438965 
	C231.916931,297.592712 234.015167,297.043335 237.035156,297.136566 
	C238.694031,297.187805 240.532486,297.509308 241.964920,296.919495 
	C243.150726,296.431183 244.435242,294.856384 244.586624,293.628632 
	C244.695206,292.748016 243.179886,291.151550 242.076279,290.763214 
	C240.587128,290.239166 238.792221,290.465546 237.138214,290.553131 
	C233.715698,290.734344 231.929291,289.631348 231.938843,285.768127 
	C231.948257,281.954987 233.978363,281.325073 237.007919,281.424713 
	C238.668549,281.479309 240.533203,281.930756 241.938034,281.335388 
	C243.387390,280.721100 244.390488,279.053802 245.588837,277.847229 
	C244.411697,276.811127 243.299225,274.985046 242.045700,274.882446 
	C237.754593,274.531311 233.402832,274.987152 229.095474,274.749512 
	C225.086029,274.528259 223.864456,276.241699 223.966705,280.031189 
	C224.150436,286.841095 223.996094,293.660156 223.989471,301.463196 
M310.897095,274.800354 
	C309.910065,276.020935 308.923035,277.241547 307.935974,278.462128 
	C309.223175,279.417694 310.523407,281.200897 311.795288,281.180878 
	C316.494232,281.106903 317.279510,283.528259 317.143127,287.511719 
	C316.920990,294.000702 317.035339,300.504547 317.143280,306.999847 
	C317.187378,309.651672 316.284637,312.969940 320.906677,313.035187 
	C325.392456,313.098480 324.912628,310.024567 324.937042,307.210876 
	C324.994934,300.547363 325.204926,293.876251 324.964752,287.222260 
	C324.813416,283.029114 326.029694,281.063202 330.542694,281.129425 
	C331.778137,281.147522 333.045380,278.999786 334.298004,277.845947 
	C332.970978,276.819702 331.686737,274.979736 330.309570,274.907349 
	C324.162598,274.584137 317.989136,274.765717 310.897095,274.800354 
z"/>
<path fill="#0F8BD7" opacity="1.000000" stroke="none" 
	d="
M384.619568,297.150421 
	C387.191864,300.976685 387.524902,297.693024 387.896088,296.368713 
	C389.376740,291.086334 390.626343,285.739197 391.965240,280.417023 
	C393.503754,274.301636 394.381775,273.832397 401.649506,275.660034 
	C401.053589,278.171692 400.549896,280.726868 399.836792,283.222198 
	C397.368866,291.857697 394.681885,300.433716 392.388123,309.114258 
	C391.490753,312.510254 389.427856,312.944061 386.513458,313.029144 
	C383.587494,313.114563 381.882141,312.221619 381.070404,309.228241 
	C379.706909,304.200134 378.017670,299.260406 376.465485,294.283478 
	C375.876740,294.257019 375.287994,294.230591 374.699249,294.204163 
	C373.262634,298.644867 371.689514,303.047485 370.434937,307.539062 
	C369.520203,310.813873 368.568695,313.075623 364.269623,313.103363 
	C359.905212,313.131439 359.035492,310.772827 358.137787,307.516724 
	C355.231750,296.976349 352.188904,286.473663 349.213837,276.009460 
	C355.975433,273.458221 357.528564,274.208832 359.159882,280.471771 
	C360.375458,285.138611 361.485229,289.833252 362.729095,294.492310 
	C363.130585,295.996246 363.808594,297.426361 364.360168,298.890259 
	C364.870239,298.920654 365.380310,298.951050 365.890411,298.981476 
	C366.984772,295.135986 368.104858,291.297607 369.165314,287.442810 
	C370.003510,284.395935 370.524811,281.233246 371.671936,278.312500 
	C372.219116,276.919189 373.969482,274.975128 375.039276,275.056763 
	C376.540955,275.171387 378.743866,276.666107 379.203217,278.049805 
	C381.244049,284.197327 382.769836,290.515808 384.619568,297.150421 
z"/>
<path fill="#0F8BD7" opacity="1.000000" stroke="none" 
	d="
M129.902618,300.972046 
	C129.918869,293.817352 129.781311,287.149994 130.068115,280.500977 
	C130.146729,278.678375 131.455719,275.421997 132.271011,275.399536 
	C134.624603,275.334747 137.916626,275.850494 139.219025,277.454559 
	C142.975311,282.080780 145.914673,287.367218 149.219528,292.364838 
	C150.262527,293.942047 151.446472,295.426025 153.782913,296.657715 
	C154.001358,294.958954 154.371078,293.263580 154.408905,291.560822 
	C154.508743,287.068054 154.181793,282.541473 154.662552,278.097382 
	C154.794418,276.878326 157.096878,275.196899 158.545258,275.040222 
	C159.683105,274.917145 162.111404,276.792206 162.133667,277.819305 
	C162.364349,288.468506 162.292389,299.127136 162.076294,309.778534 
	C162.055008,310.828674 160.352615,312.817749 159.712616,312.709106 
	C157.303726,312.300140 154.153885,311.886688 152.837921,310.234955 
	C149.017532,305.439667 145.972717,300.029572 142.573029,294.894165 
	C141.617188,293.450287 140.486893,292.121887 139.436615,290.740509 
	C138.860153,290.867767 138.283691,290.994995 137.707230,291.122253 
	C137.707230,293.955933 137.724518,296.789764 137.702820,299.623322 
	C137.676056,303.119171 137.922546,306.661804 137.395477,310.083252 
	C137.225403,311.187256 134.980286,312.700439 133.691910,312.693176 
	C132.465530,312.686279 130.434265,311.106079 130.192322,309.923859 
	C129.634766,307.199463 129.948502,304.296692 129.902618,300.972046 
z"/>
<path fill="#0F8CD9" opacity="1.000000" stroke="none" 
	d="
M184.764740,309.491699 
	C184.492996,313.526398 181.749557,313.364838 179.648270,312.640167 
	C178.461136,312.230804 177.167007,310.097168 177.131927,308.709595 
	C176.892319,299.232971 176.856567,289.745697 177.056778,280.268219 
	C177.094376,278.488098 178.563492,275.210297 179.242371,275.243866 
	C181.781418,275.369507 185.227249,275.819824 186.589859,277.533997 
	C190.501373,282.454651 193.541748,288.064789 196.970963,293.373962 
	C197.756500,294.590149 198.728668,295.685760 200.568130,298.074921 
	C201.036041,295.131927 201.472763,293.523743 201.514008,291.905487 
	C201.624176,287.583038 201.597672,283.256042 201.560623,278.931366 
	C201.535934,276.051147 202.734650,274.739441 205.760269,274.744843 
	C208.772034,274.750214 209.383926,276.349945 209.382462,278.846924 
	C209.376770,288.495209 209.518860,298.145172 209.351318,307.790131 
	C209.321884,309.484711 207.931000,312.639709 207.408081,312.590302 
	C204.848053,312.348236 201.481461,312.004211 200.037216,310.304810 
	C196.512466,306.157349 193.923187,301.220856 190.890884,296.646057 
	C189.562836,294.642426 188.072708,292.746246 186.656189,290.801270 
	C186.032455,290.903320 185.408737,291.005371 184.785004,291.107422 
	C184.785004,297.086945 184.785004,303.066467 184.764740,309.491699 
z"/>
<path fill="#0F8BD7" opacity="1.000000" stroke="none" 
	d="
M113.543983,285.596893 
	C116.839577,295.234558 115.220848,302.616058 108.807770,308.252258 
	C103.072327,313.292908 94.623016,314.399353 87.773354,311.062164 
	C80.134468,307.340454 76.991615,300.967133 77.166679,292.793549 
	C77.325218,285.391327 82.088898,278.744385 89.002220,276.389648 
	C96.855865,273.714600 104.140083,274.583679 110.142952,280.858246 
	C111.391312,282.163086 112.314598,283.778992 113.543983,285.596893 
M98.831177,282.346771 
	C93.990608,281.528809 89.917831,282.606689 87.328239,287.137939 
	C84.777557,291.601074 85.130363,298.592896 88.213020,302.201477 
	C91.099007,305.579834 94.939812,306.260742 99.085686,305.334930 
	C104.314171,304.167419 106.074982,300.137115 106.673698,295.433624 
	C107.423218,289.545349 105.028297,285.373993 98.831177,282.346771 
z"/>
<path fill="#0F8BD7" opacity="1.000000" stroke="none" 
	d="
M421.655396,277.675720 
	C425.503265,273.608337 429.708984,273.555145 431.381042,277.589417 
	C435.894775,288.479736 440.095734,299.499817 444.391022,310.480072 
	C444.555695,310.901062 444.411987,311.442657 444.411987,312.240509 
	C440.458008,313.617767 437.060608,314.114288 435.826202,308.688629 
	C435.176270,305.832092 433.303253,304.632385 430.340302,304.826324 
	C427.859619,304.988739 425.351471,304.986450 422.870544,304.825195 
	C419.907867,304.632660 418.047211,305.867828 417.353088,308.683624 
	C416.114807,313.706787 412.730377,313.441437 407.700928,312.158051 
	C412.383026,300.570038 416.940918,289.289459 421.655396,277.675720 
M424.227966,290.883881 
	C423.795990,293.041779 423.364044,295.199707 422.932068,297.357605 
	C425.368225,297.612152 427.804352,297.866730 431.526978,298.255737 
	C429.823761,293.676758 428.636261,290.484344 427.053772,286.229980 
	C425.684875,288.373230 425.094666,289.297272 424.227966,290.883881 
z"/>
<path fill="#11B6EA" opacity="1.000000" stroke="none" 
	d="
M283.865051,92.488197 
	C284.534729,91.994652 285.204437,91.501114 286.400757,90.843643 
	C287.264587,90.444839 287.601837,90.209953 287.939056,89.975067 
	C319.110748,71.893570 351.170807,70.387756 384.020935,84.966423 
	C387.614746,86.561348 390.919891,88.806656 394.842346,91.153160 
	C396.008057,91.891937 396.690399,92.227852 397.372711,92.563766 
	C397.372711,92.563766 397.255280,92.618645 397.432678,92.790924 
	C398.135773,93.259926 398.661438,93.556656 399.187103,93.853378 
	C399.187103,93.853378 399.105377,93.894165 399.004608,94.226402 
	C398.048523,95.495255 397.193207,96.431877 396.337891,97.368492 
	C370.705902,80.933311 343.191772,75.505409 313.650879,84.051674 
	C305.538910,86.398506 297.896637,90.368958 289.536194,93.961823 
	C288.693115,94.561188 288.352692,94.793091 288.012299,95.024994 
	C288.012299,95.025002 288.001465,94.996437 287.735168,95.104652 
	C286.990753,95.553947 286.512665,95.895027 286.034576,96.236115 
	C286.034576,96.236115 286.044830,96.050331 285.914154,96.186234 
	C285.524384,96.545929 285.265320,96.769722 285.006256,96.993523 
	C283.283905,98.286049 281.561554,99.578568 279.218811,101.012451 
	C277.399872,100.451591 276.201294,99.749359 275.002747,99.047127 
	C276.618256,97.715401 278.233734,96.383682 280.489075,94.851250 
	C282.040955,93.929756 282.953003,93.208977 283.865051,92.488197 
z"/>
<path fill="#0F8BD7" opacity="1.000000" stroke="none" 
	d="
M470.865753,280.047058 
	C473.385742,286.467468 475.780701,292.530365 478.175690,298.593262 
	C478.710754,298.563324 479.245789,298.533386 479.780853,298.503418 
	C480.801727,296.173645 481.892242,293.871429 482.827667,291.507843 
	C484.355682,287.647003 485.719299,283.720734 487.267242,279.868256 
	C489.508789,274.289490 491.080383,273.667999 497.661987,275.886688 
	C496.374939,279.066772 495.124573,282.244324 493.807190,285.393829 
	C490.537354,293.211426 487.393799,301.088959 483.831482,308.771759 
	C483.006714,310.550598 480.761444,312.673279 479.074738,312.758636 
	C477.493958,312.838593 475.030090,310.770355 474.260345,309.059937 
	C469.693604,298.912170 465.492004,288.599548 461.218475,278.321228 
	C460.862823,277.465820 460.883545,276.453949 460.699554,275.332703 
	C465.466187,274.126434 469.239380,274.297791 470.865753,280.047058 
z"/>
<path fill="#0F8BD7" opacity="1.000000" stroke="none" 
	d="
M57.627403,276.012329 
	C60.111885,276.940155 62.600208,277.978943 60.732216,280.626190 
	C59.682407,282.113953 57.336193,283.017426 55.408485,283.455231 
	C53.732788,283.835846 51.812595,282.953766 50.020908,283.042542 
	C42.777107,283.401520 37.794098,288.277496 38.139965,294.477264 
	C38.473709,300.459595 44.240730,305.157410 51.160709,304.907501 
	C53.132061,304.836243 55.179844,303.777130 57.017582,304.117065 
	C58.425755,304.377533 60.115559,305.917023 60.628017,307.282501 
	C61.000748,308.275665 60.036297,310.551910 59.015377,311.159576 
	C52.591835,314.983093 41.528107,312.954590 35.349651,307.108246 
	C29.123056,301.216339 27.654444,293.283936 31.389887,285.720184 
	C35.520981,277.355286 45.847366,273.431183 57.627403,276.012329 
z"/>
<path fill="#0F8BD7" opacity="1.000000" stroke="none" 
	d="
M263.280457,303.649506 
	C258.543427,295.087524 259.322174,287.868286 265.435913,281.451294 
	C271.432037,275.157745 282.799469,272.728149 289.818939,276.505157 
	C290.890991,277.081970 292.136383,279.428345 291.758606,280.166260 
	C291.004791,281.638641 289.309113,283.260803 287.766846,283.545776 
	C285.585144,283.948822 283.183685,282.932831 280.887543,282.988983 
	C273.969238,283.158020 269.055725,287.755859 268.964081,293.877930 
	C268.878479,299.594788 273.739197,304.368103 280.394012,304.760010 
	C282.670105,304.894043 285.065338,303.848694 287.262054,304.212402 
	C288.920349,304.486969 290.996460,305.856018 291.642944,307.296204 
	C292.044891,308.191589 290.471954,310.908417 289.195770,311.471619 
	C280.376892,315.363464 270.175079,312.239227 263.280457,303.649506 
z"/>
<path fill="#118BD7" opacity="1.000000" stroke="none" 
	d="
M513.104858,278.539917 
	C514.285645,277.000549 515.376831,275.053406 516.615234,274.954803 
	C521.414062,274.572601 526.275696,274.561646 531.077148,274.914246 
	C532.326111,275.005981 533.441589,276.916595 534.618347,277.991760 
	C533.346497,279.127014 532.242920,280.688721 530.754822,281.275787 
	C529.311279,281.845276 527.470398,281.474976 525.808411,281.408600 
	C522.630615,281.281677 520.865112,282.228333 520.944519,285.936523 
	C521.020325,289.475616 522.480652,290.697540 525.808960,290.501282 
	C527.627136,290.394043 529.624146,290.206085 531.239563,290.831696 
	C532.386047,291.275757 533.593506,292.967529 533.706848,294.200470 
	C533.788025,295.083618 532.266357,296.616302 531.167114,296.983643 
	C529.661072,297.487000 527.872009,297.262390 526.214478,297.168488 
	C522.871399,296.979126 520.937256,297.826782 520.924805,301.818390 
	C520.912170,305.885040 522.939148,306.571930 526.246460,306.359833 
	C528.068542,306.242981 530.042297,305.978302 531.692139,306.536041 
	C532.869690,306.934143 534.386108,308.611694 534.355713,309.678497 
	C534.323425,310.810455 532.700073,312.784424 531.672058,312.850861 
	C526.532349,313.183197 521.359924,313.016937 516.199036,313.011566 
	C512.977722,313.008209 513.048157,310.652985 513.046143,308.453156 
	C513.037292,298.629181 513.067078,288.805237 513.104858,278.539917 
z"/>
<path fill="#118BD7" opacity="1.000000" stroke="none" 
	d="
M223.986237,300.969299 
	C223.996094,293.660156 224.150436,286.841095 223.966705,280.031189 
	C223.864456,276.241699 225.086029,274.528259 229.095474,274.749512 
	C233.402832,274.987152 237.754593,274.531311 242.045700,274.882446 
	C243.299225,274.985046 244.411697,276.811127 245.588837,277.847229 
	C244.390488,279.053802 243.387390,280.721100 241.938034,281.335388 
	C240.533203,281.930756 238.668549,281.479309 237.007919,281.424713 
	C233.978363,281.325073 231.948257,281.954987 231.938843,285.768127 
	C231.929291,289.631348 233.715698,290.734344 237.138214,290.553131 
	C238.792221,290.465546 240.587128,290.239166 242.076279,290.763214 
	C243.179886,291.151550 244.695206,292.748016 244.586624,293.628632 
	C244.435242,294.856384 243.150726,296.431183 241.964920,296.919495 
	C240.532486,297.509308 238.694031,297.187805 237.035156,297.136566 
	C234.015167,297.043335 231.916931,297.592712 231.936401,301.438965 
	C231.954788,305.067932 233.265854,306.688629 236.917160,306.436157 
	C238.737106,306.310333 240.689850,306.017944 242.360931,306.527557 
	C243.565491,306.894897 245.343445,308.636780 245.191559,309.454681 
	C244.947632,310.768188 243.401352,312.727142 242.261932,312.830383 
	C237.809540,313.233948 233.295853,312.891327 228.814697,313.070160 
	C225.418472,313.205658 223.880035,311.882507 224.040588,308.443024 
	C224.148941,306.122284 224.015015,303.790192 223.986237,300.969299 
z"/>
<path fill="#1599D6" opacity="1.000000" stroke="none" 
	d="
M301.146576,145.023956 
	C302.612915,143.518173 304.079254,142.012390 306.103821,140.438126 
	C307.775452,139.286438 308.888855,138.203232 310.002258,137.120026 
	C326.813538,124.017021 351.328552,123.502502 369.354950,135.882812 
	C370.589905,136.730972 371.784454,137.637909 372.998199,138.516937 
	C375.871155,140.597534 378.932281,142.078705 382.007446,139.175064 
	C384.974670,136.373352 384.381683,133.231094 382.069855,129.540833 
	C382.420837,127.797539 382.783264,126.738663 383.145691,125.679787 
	C388.932098,128.631882 390.706360,134.090225 387.727478,139.775116 
	C384.883392,145.202820 378.595581,147.388016 373.283325,144.585907 
	C371.093781,143.430969 369.163910,141.784927 367.111603,140.368530 
	C350.215820,128.707977 329.050537,129.014755 312.537201,141.181778 
	C310.529755,142.660858 308.602386,144.248611 306.008118,145.768188 
	C303.967712,145.508240 302.557159,145.266098 301.146576,145.023956 
z"/>
<path fill="#13A4DE" opacity="1.000000" stroke="none" 
	d="
M382.971863,125.401939 
	C382.783264,126.738663 382.420837,127.797539 381.894653,129.244019 
	C364.234833,116.143295 344.784119,111.035309 323.269318,117.122581 
	C316.610474,119.006599 310.507904,122.856827 303.587341,126.082001 
	C302.706665,126.606201 302.389282,126.855225 302.071899,127.104233 
	C300.996948,128.019348 299.922028,128.934464 298.308807,130.145294 
	C297.441711,130.708664 297.112915,130.976334 296.784119,131.243988 
	C295.465485,132.626999 294.146851,134.010010 292.436157,135.154968 
	C291.668915,133.557648 291.293762,132.198334 290.918610,130.839035 
	C317.471802,104.462082 351.508911,105.084702 374.951569,119.139732 
	C377.755219,120.820663 380.191467,123.114395 382.971863,125.401939 
z"/>
<path fill="#108CD8" opacity="1.000000" stroke="none" 
	d="
M311.361145,274.782654 
	C317.989136,274.765717 324.162598,274.584137 330.309570,274.907349 
	C331.686737,274.979736 332.970978,276.819702 334.298035,277.845947 
	C333.045380,278.999786 331.778137,281.147522 330.542694,281.129425 
	C326.029694,281.063202 324.813416,283.029114 324.964752,287.222260 
	C325.204926,293.876251 324.994934,300.547363 324.937042,307.210876 
	C324.912628,310.024567 325.392456,313.098480 320.906677,313.035187 
	C316.284637,312.969940 317.187378,309.651672 317.143280,306.999847 
	C317.035339,300.504547 316.920990,294.000702 317.143127,287.511719 
	C317.279510,283.528259 316.494232,281.106903 311.795288,281.180878 
	C310.523407,281.200897 309.223175,279.417694 307.935974,278.462128 
	C308.923035,277.241547 309.910065,276.020935 311.361145,274.782654 
z"/>
<path fill="#1778BD" opacity="1.000000" stroke="none" 
	d="
M327.491547,184.802963 
	C330.881470,189.917206 335.807617,191.347549 341.696655,191.288589 
	C358.315704,191.122223 374.937317,191.211456 391.557922,191.201050 
	C393.552399,191.199799 395.615936,190.886215 397.521606,191.298767 
	C399.367401,191.698334 401.050873,192.847778 402.805634,193.667877 
	C401.024536,194.433685 399.248596,195.851151 397.461517,195.865341 
	C377.684082,196.022552 357.903046,196.097488 338.128052,195.826553 
	C334.851746,195.781647 331.599670,193.968338 327.988525,192.418228 
	C327.055847,191.242950 326.470978,190.621719 325.886139,190.000488 
	C325.886139,190.000488 325.970215,190.097855 325.970947,189.729218 
	C326.478333,187.841370 326.984924,186.322159 327.491547,184.802963 
z"/>
<path fill="#1779BF" opacity="1.000000" stroke="none" 
	d="
M226.203949,194.641205 
	C223.961197,195.083099 221.720749,195.895279 219.475327,195.909271 
	C198.375763,196.041000 177.275345,196.038040 156.175171,196.065781 
	C155.179688,196.067093 154.070221,196.254196 153.217133,195.884995 
	C152.125946,195.412735 151.241379,194.463043 150.267776,193.719116 
	C151.186401,192.931442 151.994324,191.741470 153.049774,191.451050 
	C154.606934,191.022598 156.340256,191.182327 157.998581,191.181641 
	C177.270950,191.173767 196.543411,191.209259 215.815628,191.158127 
	C218.621796,191.150681 221.426910,190.750671 224.697372,190.825073 
	C225.509476,192.292282 225.856720,193.466736 226.203949,194.641205 
z"/>
<path fill="#1967B4" opacity="1.000000" stroke="none" 
	d="
M304.481140,224.890274 
	C304.546356,231.712021 304.921631,238.548996 304.587067,245.351089 
	C304.270233,251.793365 299.435028,256.104980 293.571899,256.016846 
	C287.373291,255.923660 282.833344,251.466232 282.607544,244.741745 
	C282.395294,238.420990 282.614349,232.085739 283.083862,225.341888 
	C284.804291,224.606766 286.084534,224.286621 287.364807,223.966461 
	C287.490601,230.428940 287.648743,236.891006 287.730560,243.354050 
	C287.782715,247.473938 289.084686,250.848495 293.730042,250.920441 
	C298.186920,250.989426 299.554291,247.521790 299.722992,243.785812 
	C299.992310,237.821503 299.930573,231.842239 300.456421,225.413757 
	C302.096405,224.935547 303.288788,224.912918 304.481140,224.890274 
z"/>
<path fill="#1494D4" opacity="1.000000" stroke="none" 
	d="
M310.988159,160.426392 
	C321.470490,143.188492 345.830902,138.742020 360.751129,151.946106 
	C359.836639,153.373917 358.884308,154.205795 357.932007,155.037659 
	C342.951233,144.216171 323.379791,148.706223 311.692749,165.631836 
	C310.330780,164.987732 309.544525,164.225540 308.758301,163.463348 
	C308.963654,163.048065 309.169006,162.632782 309.785583,161.840622 
	C310.460602,161.117950 310.724365,160.772156 310.988159,160.426392 
z"/>
<path fill="#1489CE" opacity="1.000000" stroke="none" 
	d="
M260.953705,153.006973 
	C254.035339,170.728195 252.225784,189.193848 252.509415,208.498245 
	C250.837433,208.947983 249.592590,208.926208 248.347748,208.904449 
	C248.299210,206.549454 248.250671,204.194443 248.365387,201.103180 
	C248.431305,198.916977 248.333954,197.467026 248.236603,196.017075 
	C247.699493,180.920364 250.199127,166.367828 256.629944,152.247589 
	C258.457886,152.388580 259.705780,152.697784 260.953705,153.006973 
z"/>
<path fill="#158ACD" opacity="1.000000" stroke="none" 
	d="
M327.263550,184.470657 
	C326.984924,186.322159 326.478333,187.841370 325.922241,189.771225 
	C320.072479,183.734650 319.711151,177.099335 324.771301,169.955185 
	C330.174957,162.326065 339.033112,159.411728 347.089691,162.815811 
	C351.012604,164.473312 354.790802,166.615677 358.676208,162.109436 
	C360.204468,162.904831 361.252930,163.625198 362.301392,164.345581 
	C358.529938,170.218826 354.276428,171.389771 347.365784,168.457123 
	C339.761261,165.230057 335.074463,166.131332 329.361206,171.984055 
	C325.921906,175.507355 324.762848,179.503891 327.263550,184.470657 
z"/>
<path fill="#15A4DB" opacity="1.000000" stroke="none" 
	d="
M412.318329,105.450333 
	C415.031433,110.570084 414.353119,115.231117 410.368286,118.850517 
	C406.311615,122.535172 400.919830,122.436378 395.785645,119.137924 
	C387.054688,113.528740 378.151550,108.187553 369.444763,102.483910 
	C371.325500,102.500130 373.082275,102.766182 374.839050,103.032242 
	C374.961517,102.675735 375.083954,102.319237 375.206421,101.962730 
	C373.412018,100.741333 371.617645,99.519928 370.068115,98.237152 
	C370.474854,98.129883 370.636780,98.084000 370.798676,98.038116 
	C379.855286,103.505577 388.828125,109.120949 398.030121,114.331680 
	C400.204559,115.562973 403.741943,116.564041 405.570221,115.605988 
	C407.330383,114.683617 407.690094,111.088684 408.912292,108.362686 
	C410.212372,107.188362 411.265350,106.319344 412.318329,105.450333 
z"/>
<path fill="#0EB5ED" opacity="1.000000" stroke="none" 
	d="
M369.823242,98.298523 
	C371.617645,99.519928 373.412018,100.741333 375.206421,101.962730 
	C375.083954,102.319237 374.961517,102.675735 374.839050,103.032242 
	C373.082275,102.766182 371.325500,102.500130 369.215149,102.234711 
	C368.861542,102.235344 368.917664,102.199295 368.686340,101.965332 
	C364.635254,100.746849 360.815552,99.762337 356.995819,98.777832 
	C356.554077,98.739197 356.112335,98.700562 355.172546,98.329041 
	C353.453888,97.896210 352.233215,97.796272 351.012573,97.696335 
	C349.260101,97.556641 347.507629,97.416954 345.022400,97.005775 
	C340.176544,97.049744 336.063507,97.365196 331.950439,97.680649 
	C328.466553,98.215523 324.982635,98.750412 320.653748,99.249557 
	C313.573792,101.885818 307.338867,104.557823 301.103912,107.229828 
	C301.103912,107.229836 301.115692,107.146675 300.865479,107.243515 
	C300.138672,107.714554 299.662018,108.088745 299.185394,108.462936 
	C299.185394,108.462936 299.230682,108.331696 298.940125,108.368324 
	C297.084564,109.545486 295.519592,110.686020 293.954590,111.826553 
	C293.954590,111.826553 293.745544,112.081520 293.283997,112.132614 
	C291.938354,112.111145 291.054230,112.038574 289.369202,111.900253 
	C292.314880,109.192940 294.661835,107.035896 297.008820,104.878845 
	C305.440125,101.297310 313.871399,97.715775 322.934998,94.225861 
	C324.737396,94.045517 325.907501,93.773560 327.077637,93.501602 
	C328.131561,93.359047 329.185516,93.216492 330.832336,93.168182 
	C331.951508,93.147179 332.477722,93.031921 333.003967,92.916656 
	C336.684723,92.758072 340.365479,92.599480 344.722534,92.728813 
	C347.268433,93.071938 349.138031,93.127136 351.007660,93.182327 
	C351.442383,93.187271 351.877075,93.192215 352.876343,93.513237 
	C358.901703,95.319046 364.362457,96.808784 369.823242,98.298523 
z"/>
<path fill="#196EB8" opacity="1.000000" stroke="none" 
	d="
M248.254700,209.371002 
	C249.592590,208.926208 250.837433,208.947983 252.456085,208.961182 
	C252.957520,213.267120 253.017853,217.584976 253.232651,221.895142 
	C253.429214,225.840240 255.140411,228.900116 259.480621,228.740326 
	C263.500885,228.592300 265.063690,225.641006 265.184418,221.870667 
	C265.269470,219.213974 265.326630,216.556381 265.707520,213.725418 
	C266.586609,216.442184 267.154419,219.332718 268.003113,223.653290 
	C268.940887,219.721695 269.507782,217.345062 270.074646,214.968414 
	C270.051697,218.279053 270.425201,221.651886 269.917664,224.886490 
	C269.045807,230.443115 264.382080,233.935852 258.917206,233.727646 
	C253.343124,233.515289 248.906601,229.849594 248.383545,224.297455 
	C247.932816,219.512985 248.207642,214.660156 248.254700,209.371002 
z"/>
<path fill="#158ACD" opacity="1.000000" stroke="none" 
	d="
M226.519714,194.551910 
	C225.856720,193.466736 225.509476,192.292282 225.109711,190.756149 
	C229.644882,187.411636 231.552719,183.354538 232.034348,177.730255 
	C232.617996,170.914825 234.719666,164.229385 236.816986,157.216309 
	C238.698746,156.975967 239.928009,157.007019 241.157257,157.038071 
	C238.917480,166.790237 236.677719,176.542404 234.048157,186.790390 
	C233.216675,188.301346 232.774994,189.316483 232.333313,190.331619 
	C232.333313,190.331619 232.037643,190.016342 231.852386,190.213531 
	C230.437088,191.547440 229.207077,192.684158 227.977066,193.820892 
	C227.596527,194.034790 227.215988,194.248703 226.519714,194.551910 
z"/>
<path fill="#14A7DF" opacity="1.000000" stroke="none" 
	d="
M274.696106,99.178192 
	C276.201294,99.749359 277.399872,100.451591 278.915802,101.126389 
	C273.407684,106.956490 267.476929,112.714615 261.807495,118.719467 
	C259.471100,121.194077 257.696442,124.199043 255.326797,126.876945 
	C253.825867,126.160004 252.664413,125.528908 251.502960,124.897804 
	C259.131775,116.368286 266.760590,107.838768 274.696106,99.178192 
z"/>
<path fill="#129DD9" opacity="1.000000" stroke="none" 
	d="
M251.266342,125.102371 
	C252.664413,125.528908 253.825867,126.160004 255.070587,127.105438 
	C251.147064,135.382965 247.140274,143.346176 242.853256,151.910919 
	C242.405609,152.882095 242.238205,153.251740 242.070801,153.621384 
	C242.060654,153.952225 242.050522,154.283066 241.774567,155.083832 
	C241.364532,155.909531 241.220306,156.265335 241.076080,156.621124 
	C241.076080,156.621124 241.240128,156.805481 241.198700,156.921783 
	C239.928009,157.007019 238.698746,156.975967 237.008698,156.920380 
	C239.443573,145.480667 244.506973,135.059280 251.266342,125.102371 
z"/>
<path fill="#158ACD" opacity="1.000000" stroke="none" 
	d="
M265.720032,187.962906 
	C265.789948,176.865158 268.639252,166.416031 273.635864,156.276550 
	C275.248962,156.895325 276.325256,157.580292 277.401550,158.265259 
	C275.510071,163.893097 273.299225,169.439575 271.837585,175.176895 
	C270.836639,179.105927 270.878815,183.300690 269.869446,187.715820 
	C268.096161,188.024277 266.908112,187.993591 265.720032,187.962906 
z"/>
<path fill="#147FCF" opacity="1.000000" stroke="none" 
	d="
M304.532104,224.431396 
	C303.288788,224.912918 302.096405,224.935547 300.545410,224.948761 
	C300.136505,215.909424 300.086151,206.879517 300.236206,197.029724 
	C301.545837,193.642838 299.936707,189.492477 304.628906,189.012405 
	C304.613647,200.665771 304.598358,212.319153 304.532104,224.431396 
z"/>
<path fill="#1599D6" opacity="1.000000" stroke="none" 
	d="
M277.609283,158.001526 
	C276.325256,157.580292 275.248962,156.895325 273.844238,156.013947 
	C279.116974,147.594086 284.718079,139.370621 290.618896,130.993103 
	C291.293762,132.198334 291.668915,133.557648 292.155701,135.326294 
	C287.450562,143.069672 282.633789,150.403732 277.609283,158.001526 
z"/>
<path fill="#15A4DB" opacity="1.000000" stroke="none" 
	d="
M296.643127,104.872421 
	C294.661835,107.035896 292.314880,109.192940 289.369202,111.900253 
	C291.054230,112.038574 291.938354,112.111145 293.125671,112.178436 
	C287.180206,118.144394 280.931580,124.115639 274.419128,129.929688 
	C274.691345,127.083511 273.507599,126.333336 271.050629,127.018547 
	C278.052795,118.032394 286.254547,110.412277 296.643127,104.872421 
z"/>
<path fill="#167EC9" opacity="1.000000" stroke="none" 
	d="
M265.590027,188.351257 
	C266.908112,187.993591 268.096161,188.024277 269.729431,188.066223 
	C270.181030,196.732162 270.187408,205.386841 270.134216,214.504974 
	C269.507782,217.345062 268.940887,219.721695 268.003113,223.653290 
	C267.154419,219.332718 266.586609,216.442184 265.810181,213.275909 
	C265.554352,204.913315 265.507172,196.826477 265.590027,188.351257 
z"/>
<path fill="#158ACD" opacity="1.000000" stroke="none" 
	d="
M304.739136,188.624481 
	C299.936707,189.492477 301.545837,193.642838 300.315033,196.561310 
	C299.266357,185.038147 301.731659,173.990601 308.496704,163.695435 
	C309.544525,164.225540 310.330780,164.987732 311.433960,165.859985 
	C309.450409,173.392212 307.149902,180.814377 304.739136,188.624481 
z"/>
<path fill="#1489CE" opacity="1.000000" stroke="none" 
	d="
M291.980957,166.993851 
	C290.530579,177.005295 289.080200,187.016724 287.170715,197.493805 
	C285.416992,197.988159 284.122314,198.016891 282.827637,198.045624 
	C283.250397,191.280472 283.673187,184.515320 284.558777,177.195847 
	C285.987091,173.386353 286.952576,170.131195 287.918091,166.876022 
	C287.918091,166.876022 287.931274,166.937927 288.311646,166.947662 
	C289.788300,166.969528 290.884644,166.981689 291.980957,166.993851 
z"/>
<path fill="#1494D4" opacity="1.000000" stroke="none" 
	d="
M292.096985,166.678207 
	C290.884644,166.981689 289.788300,166.969528 288.281219,166.938889 
	C291.290771,160.699554 294.711090,154.478699 298.681091,147.935516 
	C299.837402,146.782288 300.444000,145.951355 301.050598,145.120422 
	C301.050598,145.120422 301.050262,145.024139 301.098419,145.024048 
	C302.557159,145.266098 303.967712,145.508240 305.698212,145.909348 
	C301.416412,152.833069 296.814728,159.597824 292.096985,166.678207 
z"/>
<path fill="#1579C5" opacity="1.000000" stroke="none" 
	d="
M282.729767,198.502380 
	C284.122314,198.016891 285.416992,197.988159 287.098541,197.951508 
	C287.492798,206.309448 287.500183,214.675308 287.436157,223.503830 
	C286.084534,224.286621 284.804291,224.606766 283.188507,224.946808 
	C282.779297,216.297516 282.705597,207.628311 282.729767,198.502380 
z"/>
<path fill="#129EDC" opacity="1.000000" stroke="none" 
	d="
M271.025024,127.012543 
	C273.507599,126.333336 274.691345,127.083511 274.107300,130.084564 
	C274.059265,130.396637 273.886414,130.182571 273.824799,130.286469 
	C273.512268,130.625961 273.261353,130.861572 273.010437,131.097168 
	C273.010437,131.097168 273.003021,131.005173 272.872620,131.267288 
	C272.504883,131.882492 272.267548,132.235580 272.030212,132.588654 
	C271.802917,133.266006 271.575592,133.943359 270.885590,134.978668 
	C270.002045,136.003296 269.581207,136.669983 269.160339,137.336655 
	C269.160339,137.336655 269.030640,137.088638 268.979309,137.255371 
	C268.622498,137.908890 268.316986,138.395645 268.011475,138.882416 
	C265.796265,143.406158 263.581024,147.929916 261.159760,152.730316 
	C259.705780,152.697784 258.457886,152.388580 256.833679,151.989334 
	C259.283691,146.393188 262.110016,140.887085 265.509338,134.997955 
	C269.181244,133.042877 271.236267,130.788574 271.024414,127.052780 
	C271.024414,127.052780 270.999390,127.006546 271.025024,127.012543 
z"/>
<path fill="#11B6EA" opacity="1.000000" stroke="none" 
	d="
M412.288452,105.312088 
	C411.265350,106.319344 410.212372,107.188362 408.877991,108.004585 
	C408.179657,107.462959 407.762787,106.974113 407.070587,105.906342 
	C405.820038,104.571487 404.844818,103.815559 403.869598,103.059647 
	C403.045563,102.494713 402.221527,101.929779 401.410522,100.875114 
	C403.290680,100.253342 405.157806,100.121300 407.024963,99.989258 
	C408.287262,101.041565 409.549561,102.093872 411.072083,103.664909 
	C411.563660,104.459854 411.795044,104.736061 412.026398,105.012268 
	C412.026398,105.012268 412.258575,105.173851 412.288452,105.312088 
z"/>
<path fill="#15A4DB" opacity="1.000000" stroke="none" 
	d="
M406.877380,99.693817 
	C405.157806,100.121300 403.290680,100.253342 401.228577,100.633858 
	C399.596039,99.891014 398.158447,98.899689 396.529388,97.638428 
	C397.193207,96.431877 398.048523,95.495255 399.029968,94.188416 
	C401.680634,95.678246 404.205231,97.538307 406.877380,99.693817 
z"/>
<path fill="#15A4DB" opacity="1.000000" stroke="none" 
	d="
M301.472778,107.171806 
	C307.338867,104.557823 313.573792,101.885818 320.255585,99.261238 
	C314.415497,101.910378 308.128571,104.512077 301.472778,107.171806 
z"/>
<path fill="#1494D4" opacity="1.000000" stroke="none" 
	d="
M370.068115,98.237152 
	C364.362457,96.808784 358.901703,95.319046 353.192596,93.596153 
	C358.713837,94.789261 364.483368,96.215538 370.525818,97.839958 
	C370.636780,98.084000 370.474854,98.129883 370.068115,98.237152 
z"/>
<path fill="#158ACD" opacity="1.000000" stroke="none" 
	d="
M358.021606,155.370087 
	C358.884308,154.205795 359.836639,153.373917 360.913513,152.237595 
	C361.932648,154.907211 362.827301,157.881302 363.419189,160.894928 
	C361.766235,160.290863 360.416016,159.647247 359.065796,159.003632 
	C358.747589,157.903259 358.429413,156.802872 358.021606,155.370087 
z"/>
<path fill="#15A4DB" opacity="1.000000" stroke="none" 
	d="
M332.409058,97.628311 
	C336.063507,97.365196 340.176544,97.049744 344.661377,96.902496 
	C340.978027,97.239128 336.922852,97.407547 332.409058,97.628311 
z"/>
<path fill="#1494D4" opacity="1.000000" stroke="none" 
	d="
M287.624329,167.071289 
	C286.952576,170.131195 285.987091,173.386353 284.735352,176.804138 
	C285.409576,173.733337 286.370056,170.499939 287.624329,167.071289 
z"/>
<path fill="#1494D4" opacity="1.000000" stroke="none" 
	d="
M359.000610,159.317993 
	C360.416016,159.647247 361.766235,160.290863 363.228577,161.253052 
	C363.294403,161.909424 363.248108,162.247208 362.911865,162.990540 
	C362.426270,163.653854 362.245270,163.921509 362.078949,164.199097 
	C362.078949,164.199097 362.258636,164.166946 362.280029,164.256256 
	C361.252930,163.625198 360.204468,162.904831 358.937988,161.865448 
	C358.791718,160.908401 358.863556,160.270386 359.000610,159.317993 
z"/>
<path fill="#15A4DB" opacity="1.000000" stroke="none" 
	d="
M270.748840,127.237976 
	C271.236267,130.788574 269.181244,133.042877 265.752319,134.784576 
	C267.105957,132.443863 268.789612,129.933517 270.748840,127.237976 
z"/>
<path fill="#15A4DB" opacity="1.000000" stroke="none" 
	d="
M357.349152,98.913139 
	C360.815552,99.762337 364.635254,100.746849 368.699219,101.996109 
	C365.196442,101.190056 361.449463,100.119255 357.349152,98.913139 
z"/>
<path fill="#1494D4" opacity="1.000000" stroke="none" 
	d="
M309.699524,137.213104 
	C308.888855,138.203232 307.775452,139.286438 306.386902,140.295471 
	C307.206787,139.249588 308.301788,138.277893 309.699524,137.213104 
z"/>
<path fill="#15A4DB" opacity="1.000000" stroke="none" 
	d="
M294.272217,111.744591 
	C295.519592,110.686020 297.084564,109.545486 299.005707,108.391083 
	C297.771179,109.472359 296.180511,110.567490 294.272217,111.744591 
z"/>
<path fill="#1494D4" opacity="1.000000" stroke="none" 
	d="
M350.644226,93.061134 
	C349.138031,93.127136 347.268433,93.071938 345.154297,92.828568 
	C346.700134,92.740242 348.490448,92.840088 350.644226,93.061134 
z"/>
<path fill="#1779BF" opacity="1.000000" stroke="none" 
	d="
M228.290558,193.752167 
	C229.207077,192.684158 230.437088,191.547440 232.004547,190.367462 
	C231.096008,191.443939 229.850021,192.563690 228.290558,193.752167 
z"/>
<path fill="#1494D4" opacity="1.000000" stroke="none" 
	d="
M326.738220,93.432854 
	C325.907501,93.773560 324.737396,94.045517 323.310791,94.211250 
	C324.169159,93.858047 325.283966,93.611076 326.738220,93.432854 
z"/>
<path fill="#15A4DB" opacity="1.000000" stroke="none" 
	d="
M351.326416,97.844543 
	C352.233215,97.796272 353.453888,97.896210 354.871094,98.184174 
	C353.925201,98.245720 352.782745,98.119232 351.326416,97.844543 
z"/>
<path fill="#1779BF" opacity="1.000000" stroke="none" 
	d="
M232.583160,190.182205 
	C232.774994,189.316483 233.216675,188.301346 233.862854,187.096008 
	C233.655914,187.948151 233.244461,188.990463 232.583160,190.182205 
z"/>
<path fill="#15A4DB" opacity="1.000000" stroke="none" 
	d="
M404.008453,103.338333 
	C404.844818,103.815559 405.820038,104.571487 406.912537,105.625519 
	C406.069000,105.154762 405.108154,104.385895 404.008453,103.338333 
z"/>
<path fill="#14A7DF" opacity="1.000000" stroke="none" 
	d="
M283.533722,92.604126 
	C282.953003,93.208977 282.040955,93.929756 280.775055,94.726471 
	C281.348267,94.108292 282.275330,93.414169 283.533722,92.604126 
z"/>
<path fill="#196EB8" opacity="1.000000" stroke="none" 
	d="
M248.152740,196.423859 
	C248.333954,197.467026 248.431305,198.916977 248.405060,200.661774 
	C248.210602,199.581284 248.139755,198.205978 248.152740,196.423859 
z"/>
<path fill="#1599D6" opacity="1.000000" stroke="none" 
	d="
M300.784088,145.280731 
	C300.444000,145.951355 299.837402,146.782288 298.945312,147.755493 
	C299.279053,147.078857 299.898315,146.259949 300.784088,145.280731 
z"/>
<path fill="#15A4DB" opacity="1.000000" stroke="none" 
	d="
M269.413727,137.169067 
	C269.581207,136.669983 270.002045,136.003296 270.655029,135.151535 
	C270.480499,135.644806 270.073822,136.323151 269.413727,137.169067 
z"/>
<path fill="#1494D4" opacity="1.000000" stroke="none" 
	d="
M332.812622,92.836411 
	C332.477722,93.031921 331.951508,93.147179 331.232117,93.182816 
	C331.566437,92.987526 332.093872,92.871849 332.812622,92.836411 
z"/>
<path fill="#15A4DB" opacity="1.000000" stroke="none" 
	d="
M397.207489,92.322998 
	C396.690399,92.227852 396.008057,91.891937 395.155518,91.318184 
	C395.670929,91.414307 396.356598,91.748276 397.207489,92.322998 
z"/>
<path fill="#158ACD" opacity="1.000000" stroke="none" 
	d="
M325.976318,190.317535 
	C326.470978,190.621719 327.055847,191.242950 327.790466,192.155319 
	C327.315643,191.842499 326.691071,191.238541 325.976318,190.317535 
z"/>
<path fill="#15A4DB" opacity="1.000000" stroke="none" 
	d="
M299.491699,108.399513 
	C299.662018,108.088745 300.138672,107.714554 300.907043,107.249466 
	C300.731873,107.551071 300.264923,107.943581 299.491699,108.399513 
z"/>
<path fill="#15A4DB" opacity="1.000000" stroke="none" 
	d="
M268.292542,138.754608 
	C268.316986,138.395645 268.622498,137.908890 269.103333,137.190552 
	C269.043640,137.514938 268.808624,138.070877 268.292542,138.754608 
z"/>
<path fill="#14A7DF" opacity="1.000000" stroke="none" 
	d="
M286.331848,96.176361 
	C286.512665,95.895027 286.990753,95.553947 287.746338,95.115891 
	C287.558960,95.384819 287.094055,95.750717 286.331848,96.176361 
z"/>
<path fill="#15A4DB" opacity="1.000000" stroke="none" 
	d="
M399.020416,93.591331 
	C398.661438,93.556656 398.135773,93.259926 397.405365,92.732147 
	C397.751648,92.777153 398.302704,93.053215 399.020416,93.591331 
z"/>
<path fill="#15A4DB" opacity="1.000000" stroke="none" 
	d="
M411.974121,104.730782 
	C411.795044,104.736061 411.563660,104.459854 411.215515,103.939102 
	C411.373077,103.946136 411.647461,104.197716 411.974121,104.730782 
z"/>
<path fill="#158ACD" opacity="1.000000" stroke="none" 
	d="
M242.313507,153.413940 
	C242.238205,153.251740 242.405609,152.882095 242.732437,152.254120 
	C242.779984,152.399368 242.668106,152.802933 242.313507,153.413940 
z"/>
<path fill="#1599D6" opacity="1.000000" stroke="none" 
	d="
M302.372314,127.014862 
	C302.389282,126.855225 302.706665,126.606201 303.286255,126.199707 
	C303.256561,126.336639 302.964630,126.631050 302.372314,127.014862 
z"/>
<path fill="#15A4DB" opacity="1.000000" stroke="none" 
	d="
M273.318909,131.079758 
	C273.261353,130.861572 273.512268,130.625961 273.924103,130.191254 
	C273.932465,130.348892 273.779907,130.705612 273.318909,131.079758 
z"/>
<path fill="#1599D6" opacity="1.000000" stroke="none" 
	d="
M297.099243,131.140411 
	C297.112915,130.976334 297.441711,130.708664 298.030945,130.266998 
	C297.999054,130.407593 297.706696,130.722214 297.099243,131.140411 
z"/>
<path fill="#15A4DB" opacity="1.000000" stroke="none" 
	d="
M272.376892,132.467743 
	C272.267548,132.235580 272.504883,131.882492 272.918640,131.263611 
	C272.971222,131.447495 272.847412,131.897171 272.376892,132.467743 
z"/>
<path fill="#158ACD" opacity="1.000000" stroke="none" 
	d="
M362.322693,164.095337 
	C362.245270,163.921509 362.426270,163.653854 362.777924,163.211136 
	C362.811401,163.347961 362.688934,163.669769 362.322693,164.095337 
z"/>
<path fill="#158ACD" opacity="1.000000" stroke="none" 
	d="
M310.708099,160.612335 
	C310.724365,160.772156 310.460602,161.117950 309.975952,161.702835 
	C309.979401,161.560730 310.203735,161.179520 310.708099,160.612335 
z"/>
<path fill="#158ACD" opacity="1.000000" stroke="none" 
	d="
M241.301773,156.419464 
	C241.220306,156.265335 241.364532,155.909531 241.654755,155.306458 
	C241.709671,155.445389 241.618576,155.831604 241.301773,156.419464 
z"/>
<path fill="#14A7DF" opacity="1.000000" stroke="none" 
	d="
M285.272949,96.933121 
	C285.265320,96.769722 285.524384,96.545929 286.007050,96.191406 
	C286.000275,96.331360 285.769958,96.602036 285.272949,96.933121 
z"/>
<path fill="#14A7DF" opacity="1.000000" stroke="none" 
	d="
M288.327209,94.960876 
	C288.352692,94.793091 288.693115,94.561188 289.313477,94.193588 
	C289.276337,94.337509 288.959259,94.617134 288.327209,94.960876 
z"/>
<path fill="#14A7DF" opacity="1.000000" stroke="none" 
	d="
M287.620544,90.035759 
	C287.601837,90.209953 287.264587,90.444839 286.652130,90.822121 
	C286.685272,90.675163 286.993683,90.385811 287.620544,90.035759 
z"/>
<path fill="#1B205A" opacity="1.000000" stroke="none" 
	d="
M99.207672,282.468445 
	C105.028297,285.373993 107.423218,289.545349 106.673698,295.433624 
	C106.074982,300.137115 104.314171,304.167419 99.085686,305.334930 
	C94.939812,306.260742 91.099007,305.579834 88.213020,302.201477 
	C85.130363,298.592896 84.777557,291.601074 87.328239,287.137939 
	C89.917831,282.606689 93.990608,281.528809 99.207672,282.468445 
z"/>
<path fill="#192A64" opacity="1.000000" stroke="none" 
	d="
M424.366211,290.552612 
	C425.094666,289.297272 425.684875,288.373230 427.053772,286.229980 
	C428.636261,290.484344 429.823761,293.676758 431.526978,298.255737 
	C427.804352,297.866730 425.368225,297.612152 422.932068,297.357605 
	C423.364044,295.199707 423.795990,293.041779 424.366211,290.552612 
z"/>
</svg>